# xmcd CD database file
#
# Track frame offsets:
#	150
#	20050
#	62865
#	106935
#	132122
#	148950
#	184020
#
# Disc length: 2837 seconds
#
# Revision: 0
# Processed by: cddbd v1.4PL0 Copyright (c) Steve Scherf et al.
# Submitted via: CDex 1.51
#
DISCID=650b1307
DTITLE=Jan Fryderyk, Charlie Mariano, Alberto Alarcon - Trio
DYEAR=1986
DGENRE=Jazz
TTITLE0=Mazur F-Dur
TTITLE1=Berceuse Des-Dur
TTITLE2=Nocturne B-Moll
TTITLE3=Barcarole Des-Dur
TTITLE4=Etüde C-Dur
TTITLE5=Sunrise
TTITLE6=Waltz No. 17
EXTD=YEAR: 1986
EXTT0=
EXTT1=
EXTT2=
EXTT3=
EXTT4=
EXTT5=
EXTT6=
PLAYORDER=
